<svg xmlns="http://www.w3.org/2000/svg" xmlns:xlink="http://www.w3.org/1999/xlink" width="500" zoomAndPan="magnify" viewBox="0 0 375 374.999991" height="500" preserveAspectRatio="xMidYMid meet" version="1.0"><defs><g/><clipPath id="b3ddb07160"><path d="M 5 5 L 370 5 L 370 370 L 5 370 Z M 5 5 " clip-rule="nonzero"/></clipPath><clipPath id="f6f8626a52"><path d="M 48.734375 -30.042969 L 405.042969 48.738281 L 326.261719 405.042969 L -30.042969 326.265625 Z M 48.734375 -30.042969 " clip-rule="nonzero"/></clipPath><clipPath id="a05acbf0de"><path d="M 226.886719 9.347656 C 128.496094 -12.40625 31.097656 49.71875 9.34375 148.109375 C -12.410156 246.503906 49.71875 343.898438 148.109375 365.65625 C 246.5 387.410156 343.898438 325.28125 365.652344 226.890625 C 387.40625 128.5 325.28125 31.101562 226.886719 9.347656 Z M 226.886719 9.347656 " clip-rule="nonzero"/></clipPath><clipPath id="710c659204"><path d="M 17 13 L 359 13 L 359 362 L 17 362 Z M 17 13 " clip-rule="nonzero"/></clipPath><clipPath id="08093afd8d"><path d="M 364.828125 355.433594 L 23.15625 367.714844 L 10.625 19.121094 L 352.296875 6.835938 Z M 364.828125 355.433594 " clip-rule="nonzero"/></clipPath><clipPath id="2925a518bf"><path d="M 364.828125 355.433594 L 23.15625 367.714844 L 10.625 19.121094 L 352.296875 6.835938 Z M 364.828125 355.433594 " clip-rule="nonzero"/></clipPath><clipPath id="26b88da088"><path d="M 26 26 L 349 26 L 349 349 L 26 349 Z M 26 26 " clip-rule="nonzero"/></clipPath><clipPath id="1d8dece0c9"><path d="M 8.316406 328.503906 L 46.484375 8.300781 L 366.6875 46.472656 L 328.515625 366.671875 Z M 8.316406 328.503906 " clip-rule="nonzero"/></clipPath><clipPath id="60731e40d9"><path d="M 27.402344 168.402344 C 16.859375 256.824219 79.996094 337.046875 168.414062 347.585938 C 256.835938 358.128906 337.0625 294.992188 347.601562 206.574219 C 358.140625 118.152344 295.007812 37.925781 206.585938 27.386719 C 118.164062 16.847656 37.941406 79.980469 27.402344 168.402344 Z M 27.402344 168.402344 " clip-rule="nonzero"/></clipPath></defs><g clip-path="url(#b3ddb07160)"><g clip-path="url(#f6f8626a52)"><g clip-path="url(#a05acbf0de)"><path fill="#000000" d="M 48.734375 -30.042969 L 405.042969 48.738281 L 326.261719 405.042969 L -30.042969 326.265625 Z M 48.734375 -30.042969 " fill-opacity="1" fill-rule="nonzero"/></g></g></g><g clip-path="url(#710c659204)"><g clip-path="url(#08093afd8d)"><g clip-path="url(#2925a518bf)"><path fill="#fdf9f7" d="M 357.863281 174.046875 C 359.347656 203.285156 353.117188 230.980469 340.894531 257.382812 C 334.339844 271.539062 325.898438 284.535156 315.914062 296.578125 C 300.476562 315.183594 282.148438 330.132812 260.835938 341.410156 C 245.421875 349.570312 229.117188 355.382812 211.953125 358.347656 C 202.402344 360 192.71875 361.613281 182.964844 361.097656 C 176.382812 360.746094 169.785156 360.628906 163.1875 360.039062 C 144.78125 358.402344 127.527344 353.121094 110.910156 345.390625 C 98.578125 339.652344 87.351562 332.144531 76.8125 323.535156 C 69.855469 317.851562 63.648438 311.453125 57.796875 304.671875 C 56.175781 302.792969 55.976562 300.519531 57.46875 299.335938 C 59.359375 297.835938 61.152344 298.285156 62.730469 299.976562 C 65.9375 303.40625 69.0625 306.902344 72.433594 310.183594 C 91.324219 328.621094 113.457031 341.375 138.832031 348.464844 C 148.742188 351.234375 158.808594 353.027344 169.121094 353.691406 C 174.503906 354.035156 179.910156 354.417969 185.277344 354.410156 C 191.007812 354.40625 196.765625 353.597656 202.480469 352.84375 C 213.570312 351.378906 224.445312 348.863281 234.992188 345.113281 C 252.90625 338.742188 269.386719 329.785156 284.300781 317.878906 C 292.941406 310.980469 301.050781 303.550781 308.246094 295.179688 C 321.480469 279.78125 331.847656 262.609375 339.257812 243.667969 C 343.6875 232.347656 346.875 220.703125 348.894531 208.710938 C 349.710938 203.867188 350.109375 198.988281 350.679688 194.128906 C 352.117188 181.855469 351.792969 169.554688 349.96875 157.46875 C 347.417969 140.585938 342.710938 124.203125 335.1875 108.734375 C 329.296875 96.632812 322.152344 85.367188 313.476562 75.105469 C 303.261719 63.03125 291.519531 52.726562 278.117188 44.265625 C 260.722656 33.28125 241.96875 26.003906 221.730469 22.433594 C 208.300781 20.0625 194.769531 19.09375 181.230469 20.398438 C 156.621094 22.777344 133.386719 29.898438 111.9375 42.394531 C 97.996094 50.519531 85.433594 60.394531 74.132812 72.003906 C 58.21875 88.355469 46.144531 107.128906 37.40625 128.125 C 31.050781 143.402344 27.054688 159.34375 25.371094 175.796875 C 24.570312 183.578125 24.148438 191.4375 24.484375 199.277344 C 25.285156 217.886719 28.515625 236.023438 35.316406 253.441406 C 35.746094 254.535156 36.25 255.617188 36.515625 256.75 C 36.871094 258.238281 36.738281 259.917969 35.066406 260.328125 C 33.519531 260.707031 31.542969 261.726562 30.371094 259.328125 C 28.539062 255.574219 27.144531 251.640625 25.910156 247.683594 C 22.824219 237.789062 20.25 227.75 19.101562 217.40625 C 17.894531 206.558594 17.03125 195.625 17.679688 184.757812 C 19.597656 152.585938 29.113281 122.75 46.527344 95.566406 C 53.71875 84.34375 62.019531 73.949219 71.519531 64.632812 C 88.921875 47.570312 108.816406 34.234375 131.550781 25.246094 C 142.40625 20.960938 153.566406 17.785156 165 15.605469 C 177.011719 13.3125 189.242188 12.6875 201.375 13.144531 C 222.914062 13.953125 243.617188 19.023438 263.21875 28.144531 C 276.117188 34.148438 288.042969 41.734375 298.941406 50.9375 C 325.578125 73.433594 343.125 101.71875 352.324219 135.265625 C 354.0625 141.605469 355.21875 148.117188 356.414062 154.589844 C 357.582031 161.003906 357.574219 167.539062 357.863281 174.046875 Z M 357.863281 174.046875 " fill-opacity="1" fill-rule="nonzero"/></g></g></g><g clip-path="url(#26b88da088)"><g clip-path="url(#1d8dece0c9)"><g clip-path="url(#60731e40d9)"><path fill="#ffcc00" d="M 8.316406 328.503906 L 46.484375 8.300781 L 366.6875 46.472656 L 328.515625 366.671875 Z M 8.316406 328.503906 " fill-opacity="1" fill-rule="nonzero"/></g></g></g><g fill="#000000" fill-opacity="1"><g transform="translate(97.504657, 177.030374)"><g><path d="M 81.328125 -10.484375 C 79.460938 -10.253906 77.316406 -10.257812 74.890625 -10.5 C 72.472656 -10.738281 70.285156 -11.445312 68.328125 -12.625 C 65.941406 -13.875 63.945312 -16.375 62.34375 -20.125 L 61.5625 -22.34375 C 60.15625 -26.882812 58.425781 -35.847656 56.375 -49.234375 C 52.144531 -28.796875 47.628906 -15.59375 42.828125 -9.625 C 40.398438 -6.726562 37.15625 -5.023438 33.09375 -4.515625 C 29.757812 -4.097656 26.191406 -4.882812 22.390625 -6.875 C 19.929688 -8.019531 17.957031 -10.519531 16.46875 -14.375 C 16.050781 -15.375 15.660156 -16.476562 15.296875 -17.6875 C 13.898438 -22.207031 12.101562 -30.96875 9.90625 -43.96875 C 8.53125 -52.363281 6.957031 -60.570312 5.1875 -68.59375 C 4.363281 -72.539062 3.441406 -76.148438 2.421875 -79.421875 C 1.378906 -82.890625 0.476562 -85.425781 -0.28125 -87.03125 L -1.296875 -86.90625 C 3.117188 -87.457031 7.429688 -87.367188 11.640625 -86.640625 C 15.859375 -85.921875 18.660156 -84.710938 20.046875 -83.015625 C 20.992188 -81.566406 21.816406 -79.707031 22.515625 -77.4375 C 23.898438 -72.882812 25.054688 -64.800781 25.984375 -53.1875 C 26.492188 -47.507812 27.128906 -41.785156 27.890625 -36.015625 C 28.648438 -30.242188 30.132812 -23.570312 32.34375 -16 C 37.59375 -25.675781 41.097656 -34.8125 42.859375 -43.40625 C 44.617188 -52 45.648438 -60.632812 45.953125 -69.3125 C 46.253906 -77.988281 46.316406 -85.832031 46.140625 -92.84375 L 45.359375 -92.75 C 49.859375 -93.3125 54.070312 -93.222656 58 -92.484375 C 61.9375 -91.742188 64.578125 -90.503906 65.921875 -88.765625 C 66.828125 -87.347656 67.644531 -85.507812 68.375 -83.25 C 69.6875 -79 70.84375 -70.9375 71.84375 -59.0625 C 72.332031 -53.488281 72.945312 -47.878906 73.6875 -42.234375 C 74.4375 -36.585938 75.859375 -29.957031 77.953125 -22.34375 C 83.398438 -32.476562 87.097656 -41.800781 89.046875 -50.3125 C 90.992188 -58.832031 92.160156 -67.332031 92.546875 -75.8125 C 92.941406 -84.300781 93.019531 -92.09375 92.78125 -99.1875 L 91.65625 -99.046875 C 93.363281 -99.253906 95.929688 -98.832031 99.359375 -97.78125 C 102.796875 -96.738281 105.976562 -95.1875 108.90625 -93.125 C 111.0625 -91.65625 112.394531 -90.023438 112.90625 -88.234375 C 113.039062 -87.765625 113.132812 -87.3125 113.1875 -86.875 C 112.476562 -71.613281 110.128906 -57.179688 106.140625 -43.578125 C 102.160156 -29.972656 98.003906 -20.796875 93.671875 -16.046875 C 90.453125 -12.972656 86.335938 -11.117188 81.328125 -10.484375 Z M 81.328125 -10.484375 "/></g></g></g><g fill="#000000" fill-opacity="1"><g transform="translate(207.886741, 163.19806)"><g><path d="M 56.4375 -6.21875 L 55.65625 -6.109375 C 52.28125 -5.691406 49.425781 -6.023438 47.09375 -7.109375 C 43.675781 -8.953125 40.664062 -11.359375 38.0625 -14.328125 C 35.457031 -17.296875 33.175781 -20.4375 31.21875 -23.75 C 29.269531 -27.070312 27.65625 -30.023438 26.375 -32.609375 C 26.34375 -32.796875 26.019531 -33.425781 25.40625 -34.5 L 23.03125 -33.640625 C 21.976562 -33.234375 20.695312 -32.789062 19.1875 -32.3125 C 18.53125 -25.632812 18.34375 -19.867188 18.625 -15.015625 C 18.75 -12.367188 19.144531 -10.007812 19.8125 -7.9375 C 20.320312 -6.113281 20.769531 -4.957031 21.15625 -4.46875 C 18.507812 -2.96875 15.640625 -2.023438 12.546875 -1.640625 C 10.953125 -1.429688 8.738281 -1.535156 5.90625 -1.953125 C 3.082031 -2.367188 0.890625 -4.921875 -0.671875 -9.609375 C -1.328125 -12.035156 -1.484375 -15.601562 -1.140625 -20.3125 C -0.804688 -25.03125 -0.257812 -30.457031 0.5 -36.59375 C 1.695312 -45.488281 2.539062 -54.765625 3.03125 -64.421875 C 3.519531 -74.085938 2.875 -82.453125 1.09375 -89.515625 C 3.375 -89.722656 6.054688 -89.648438 9.140625 -89.296875 C 12.222656 -88.953125 14.71875 -88.394531 16.625 -87.625 C 18.539062 -86.851562 19.632812 -86.0625 19.90625 -85.25 C 21.289062 -80.570312 21.984375 -75.226562 21.984375 -69.21875 C 21.984375 -63.21875 21.519531 -55.726562 20.59375 -46.75 C 34.351562 -57.050781 42.804688 -71.097656 45.953125 -88.890625 C 47.015625 -88.847656 48.984375 -87.59375 51.859375 -85.125 C 54.734375 -82.65625 57.109375 -79.597656 58.984375 -75.953125 C 59.554688 -74.929688 59.984375 -73.953125 60.265625 -73.015625 C 60.941406 -70.753906 60.976562 -68.640625 60.375 -66.671875 C 58.664062 -62.609375 55.773438 -58.4375 51.703125 -54.15625 C 47.628906 -49.882812 42.804688 -45.742188 37.234375 -41.734375 C 39.222656 -37.816406 41.984375 -34.085938 45.515625 -30.546875 C 49.054688 -27.003906 53.066406 -23.894531 57.546875 -21.21875 C 62.035156 -18.550781 65.988281 -16.984375 69.40625 -16.515625 C 69.695312 -14.242188 68.546875 -12.109375 65.953125 -10.109375 C 63.367188 -8.109375 60.195312 -6.8125 56.4375 -6.21875 Z M 56.4375 -6.21875 "/></g></g></g><g fill="#000000" fill-opacity="1"><g transform="translate(119.403352, 286.124954)"><g><path d="M 77.53125 -9.78125 C 75.9375 -9.582031 73.722656 -9.6875 70.890625 -10.09375 C 68.066406 -10.507812 65.859375 -13.0625 64.265625 -17.75 C 63.535156 -20.09375 63.367188 -23.390625 63.765625 -27.640625 C 64.140625 -32.335938 65.234375 -41.976562 67.046875 -56.5625 C 61.773438 -45.070312 57.757812 -37.25 55 -33.09375 C 52.238281 -28.945312 49.601562 -26.070312 47.09375 -24.46875 C 45.582031 -23.59375 43.957031 -23.046875 42.21875 -22.828125 C 41.289062 -22.710938 39.910156 -22.710938 38.078125 -22.828125 C 36.242188 -22.941406 34.289062 -24.179688 32.21875 -26.546875 C 30.832031 -28.554688 29.554688 -31.46875 28.390625 -35.28125 C 27.597656 -37.726562 26.835938 -40.40625 26.109375 -43.3125 C 25.492188 -45.738281 24.054688 -50.78125 21.796875 -58.4375 C 20.921875 -49.582031 20.3125 -43.296875 19.96875 -39.578125 C 18.09375 -24.253906 17.992188 -13.78125 19.671875 -8.15625 C 20.222656 -6.25 20.71875 -5.019531 21.15625 -4.46875 C 18.507812 -2.96875 15.640625 -2.023438 12.546875 -1.640625 C 10.953125 -1.429688 8.738281 -1.535156 5.90625 -1.953125 C 3.082031 -2.367188 0.890625 -4.921875 -0.671875 -9.609375 C -1.328125 -12.035156 -1.476562 -15.476562 -1.125 -19.9375 C -0.78125 -24.394531 -0.273438 -29.476562 0.390625 -35.1875 C 1.566406 -43.5 2.390625 -52.242188 2.859375 -61.421875 C 3.328125 -70.597656 2.675781 -78.71875 0.90625 -85.78125 C 7.632812 -86.21875 13.171875 -85.414062 17.515625 -83.375 L 17.828125 -83.234375 C 21.640625 -80.878906 24.738281 -77.625 27.125 -73.46875 C 29.507812 -69.320312 31.453125 -64.835938 32.953125 -60.015625 C 33.015625 -59.859375 33.441406 -58.425781 34.234375 -55.71875 C 35.035156 -53.007812 35.976562 -49.164062 37.0625 -44.1875 L 38.71875 -37.265625 C 44.375 -44.078125 49.070312 -51.347656 52.8125 -59.078125 C 56.5625 -66.804688 59.59375 -74.085938 61.90625 -80.921875 C 64.226562 -87.765625 65.421875 -92.082031 65.484375 -93.875 C 67.992188 -94.070312 70.785156 -94.007812 73.859375 -93.6875 C 76.941406 -93.363281 79.441406 -92.804688 81.359375 -92.015625 C 83.273438 -91.222656 84.367188 -90.4375 84.640625 -89.65625 C 86.328125 -83.875 87.03125 -77.335938 86.75 -70.046875 C 86.476562 -62.753906 85.867188 -55.410156 84.921875 -48.015625 C 83.015625 -32.523438 82.90625 -21.929688 84.59375 -16.234375 C 85.15625 -14.367188 85.65625 -13.160156 86.09375 -12.609375 C 83.5 -11.109375 80.644531 -10.164062 77.53125 -9.78125 Z M 77.53125 -9.78125 "/></g></g></g><g fill="#000000" fill-opacity="1"><g transform="translate(205.770629, 275.302008)"><g><path d="M 62.671875 -7.921875 C 62.066406 -7.835938 60.753906 -7.75 58.734375 -7.65625 C 56.722656 -7.570312 54.597656 -8.601562 52.359375 -10.75 C 48.628906 -14.363281 45.289062 -18.613281 42.34375 -23.5 C 39.394531 -28.394531 36.546875 -33.625 33.796875 -39.1875 C 30.960938 -44.976562 27.003906 -52.160156 21.921875 -60.734375 C 21.273438 -52.378906 20.640625 -45.53125 20.015625 -40.1875 C 19.054688 -32.34375 18.515625 -25.21875 18.390625 -18.8125 C 18.347656 -14.675781 18.773438 -11.125 19.671875 -8.15625 C 20.222656 -6.25 20.71875 -5.019531 21.15625 -4.46875 C 18.507812 -2.96875 15.640625 -2.023438 12.546875 -1.640625 C 10.953125 -1.429688 8.738281 -1.535156 5.90625 -1.953125 C 3.082031 -2.367188 0.890625 -4.921875 -0.671875 -9.609375 C -1.328125 -12.035156 -1.476562 -15.476562 -1.125 -19.9375 C -0.78125 -24.394531 -0.273438 -29.476562 0.390625 -35.1875 C 1.566406 -43.5 2.390625 -52.242188 2.859375 -61.421875 C 3.328125 -70.597656 2.675781 -78.71875 0.90625 -85.78125 C 3.78125 -86.019531 6.9375 -85.867188 10.375 -85.328125 C 13.820312 -84.785156 16.378906 -84.035156 18.046875 -83.078125 C 18.140625 -82.972656 18.148438 -82.929688 18.078125 -82.953125 C 18.015625 -82.984375 17.984375 -83.019531 17.984375 -83.0625 C 23.679688 -79.25 28.332031 -74.582031 31.9375 -69.0625 C 35.539062 -63.550781 38.9375 -57.554688 42.125 -51.078125 C 43.851562 -47.609375 46.296875 -42.984375 49.453125 -37.203125 C 50.179688 -40.085938 50.539062 -41.726562 50.53125 -42.125 C 51.65625 -50.3125 52.4375 -58.929688 52.875 -67.984375 C 53.320312 -77.046875 52.679688 -85.066406 50.953125 -92.046875 C 53.203125 -92.210938 55.863281 -92.132812 58.9375 -91.8125 C 62.007812 -91.488281 64.503906 -90.929688 66.421875 -90.140625 C 68.335938 -89.347656 69.425781 -88.5625 69.6875 -87.78125 C 71.382812 -82.007812 72.09375 -75.472656 71.8125 -68.171875 C 71.53125 -60.878906 70.925781 -53.535156 70 -46.140625 C 68.070312 -30.742188 67.976562 -20.175781 69.71875 -14.4375 C 70.269531 -12.53125 70.769531 -11.300781 71.21875 -10.75 C 68.65625 -9.25 65.804688 -8.304688 62.671875 -7.921875 Z M 62.671875 -7.921875 "/></g></g></g></svg>